<?xml version="1.0" encoding="UTF-8"?>
<svg id="Capa_1" data-name="Capa 1" xmlns="http://www.w3.org/2000/svg" viewBox="0 0 35.15 35.15">
  <defs>
    <style>
      .cls-1 {
        fill: #6447dd;
        stroke: #6447dd;
        stroke-miterlimit: 10;
        stroke-width: .5px;
      }
    </style>
  </defs>
  <path class="cls-1" d="M17.59,33.54c-8.8,0-15.96-7.16-15.96-15.96S8.79,1.63,17.59,1.63s15.96,7.16,15.96,15.96-7.16,15.96-15.96,15.96ZM17.59,3.44c-7.8,0-14.15,6.35-14.15,14.15s6.35,14.15,14.15,14.15,14.15-6.35,14.15-14.15S25.39,3.44,17.59,3.44Z"/>
  <path class="cls-1" d="M16.38,23.78c-.21,0-.41-.07-.58-.21l-4.14-3.42c-.39-.32-.44-.89-.12-1.27.32-.38.89-.44,1.27-.12l3.42,2.82,6.92-9.06c.3-.4.87-.48,1.27-.17.4.3.47.87.17,1.27l-7.49,9.81c-.15.2-.37.32-.62.35-.03,0-.07,0-.1,0Z"/>
</svg>