<?xml version="1.0" encoding="UTF-8"?>
<svg id="Capa_1" data-name="Capa 1" xmlns="http://www.w3.org/2000/svg" viewBox="0 0 760 760">
  <defs>
    <style>
      .cls-1 {
        fill: #6447dd;
      }
    </style>
  </defs>
  <path class="cls-1" d="M315.56,90.4c5.66,5.34,11.87,13.74,17.96,19.27,1.94,1.76,14.3,13.15,15.3,13.33,6.18,1.06,14.36-6.17,20.88-1.76l54.16,57.12,9.24-.53c9.46-6.21,51.55-50.1,58.23-51.27,5.27-.92,8.16,5.53,10.42,7.29,6.6,5.14,13,10.7,19.14,15.62,12.96,10.39,26.27,20.23,38.96,30.93,4.95,1.33,20.47-15.99,27.16-17.45,11.79,12.93,26.05,23.4,38.62,35.22,16.22,15.25,31.96,33.59,48.59,48.45,3.27,2.92,9.1,1.95,8.35,9-.87,1.07-11.31-8.4-13.2-8.97s-4.33,1.11-5.02.67c-.19-.12,1.15-2.36.68-3.34-2.18-4.47-24.54-15.13-29.93-18.81-1.26-.86-2.08-3.3-4.28-4.79-6.81-4.6-31.69-22.83-36.97-24.43-2.59-.79-2.65.26-2.51,2.49.46,7.6,11.26,29.43,14.34,38.76.75,2.27,4.09,2.03-.19,5.11l-110.86-94.35c-12.3,13.62-25.6,26.81-35.8,42.07l42.21,100.39c-2.02-2.98-6.01-4.31-8.18-6.74-28.89-32.28-58.73-68.64-87.05-100.18-12.28-13.68-25.35-26.78-37.33-40.74-9.27-4.18-12.59.68-10.87,10.05-9.14.31-7.19-4.55-10.65-8.37-9.86-10.87-20.35-21.91-29.03-32.23-2.68-3.19-6.6-6.74-10.04-9.14l-70.49,208.91-6.06-74.35-57.25-26.53-96.68,79.32,88.04-102.67c3.22-2.25,27.99,18.41,32.98,15.76l106.15-120.33c1.38-.97,9.56,5.85,11,7.2Z"/>
  <g>
    <path class="cls-1" d="M7,592.55v-226.24h167.74v41.69H56.77v50.42h97.61v42.02H56.77v50.42h117.97v41.69H7Z"/>
    <path class="cls-1" d="M297.55,370.11v56.31c-10.56-8.4-25.53-12.61-44.93-12.61-23.92,0-42.45,6.84-55.59,20.52-13.15,13.69-19.72,32.92-19.72,57.69v26.83c0,25,6.57,44.28,19.72,57.85,13.14,13.57,31.67,20.36,55.59,20.36,21.76,0,37.92-5.28,48.48-15.84l1.94,11.31h42.02v-206.18c-17.19-4.78-33.12-10.23-47.51-16.26ZM297.55,518.86c0,14.87-2.48,25.37-7.43,31.51-4.96,6.14-14.33,9.21-28.12,9.21s-23.11-3.07-27.96-9.21c-4.85-6.14-7.27-16.65-7.27-31.51v-26.83c0-14.65,2.42-25.05,7.27-31.19,4.85-6.14,14.17-9.21,27.96-9.21s23.16,3.07,28.12,9.21c4.95,6.14,7.43,16.54,7.43,31.19v26.83Z"/>
    <path class="cls-1" d="M471.52,418.67h47.83v169.68c0,24.99-7.11,44.33-21.33,58.01-14.22,13.68-34.26,20.52-60.12,20.52-16.16,0-30.44-2.91-42.82-8.73-12.39-5.82-21.71-14.01-27.96-24.56l38.46-20.04c4.52,5.6,9.05,9.58,13.57,11.96,4.52,2.37,10.77,3.56,18.75,3.56,13.14,0,22.03-3.07,26.66-9.21,4.63-6.14,6.95-16.64,6.95-31.51v-3.23c-10.13,7.97-24.35,11.96-42.66,11.96-23.06,0-40.83-6.79-53.33-20.36-12.5-13.57-18.75-32.85-18.75-57.85v-100.19h47.51v100.19c0,14.87,2.37,25.37,7.11,31.51,4.74,6.14,13.62,9.21,26.66,9.21s21.87-3.07,26.5-9.21c4.63-6.14,6.95-16.65,6.95-31.51v-100.19Z"/>
    <path class="cls-1" d="M705.49,384.9v207.65h47.51v-224.67c-14.31,6.3-30.23,12-47.51,17.02Z"/>
    <path class="cls-1" d="M556.64,496.08c13.01-7.66,27.95-11.34,43.05-11.36,8.9-.02,18.8.9,29.3,3.44,5.1,1.24,13.12,2.46,17.44,4.08-.55-3.1-.55-13.93-5.88-25.58-4.53-9.9-14.76-14.85-30.7-14.85-6.9,0-12.82,1.02-17.78,3.07-4.96,2.05-9.21,5.01-12.77,8.89-3.56,3.88-6.74,8.94-9.53,15.19l-38.46-20.04c12.28-29.95,38.46-44.93,78.54-44.93,26.93,0,47.4,7,61.41,21.01,14,14.01,21.01,34.05,21.01,60.12v97.61h-42.02l-1.94-11.96c-11.64,10.99-29.09,16.48-52.36,16.48-12.07,0-22.95-1.83-32.64-5.49-9.7-3.66-17.73-9.75-24.08-18.26-6.36-8.51-9.53-18.91-9.53-31.19,0-15.3,4.41-27.26,13.25-35.88,3.93-3.83,8.49-7.28,13.69-10.34ZM577.2,540.03c0,2.59.37,4.9,1.13,6.95.75,2.05,1.88,3.88,3.39,5.49,1.5,1.62,3.28,2.96,5.33,4.04,2.05,1.08,4.31,1.89,6.79,2.42,2.47.54,5.22.81,8.24.81,11.2,0,21.06-2.53,29.57-7.6,8.51-5.06,14.03-12.42,14.03-21.69v-9.5c-4.36-1.71-11.16-3.04-17.69-4.05-10.02-1.55-18.59-.84-24.62.17-4.56,1.25-8.2,2.69-10.83,3.72-2.48.97-5.07,2.32-7.76,4.04-2.7,1.73-4.64,3.83-5.82,6.3-1.19,2.48-1.78,5.44-1.78,8.89Z"/>
  </g>
</svg>