<?xml version="1.0" encoding="UTF-8"?>
<svg id="Capa_1" data-name="Capa 1" xmlns="http://www.w3.org/2000/svg" viewBox="0 0 97.88 97.88">
  <defs>
    <style>
      .cls-1 {
        stroke: #6447dd;
        stroke-miterlimit: 10;
        stroke-width: .53px;
      }

      .cls-1, .cls-2 {
        fill: #6447dd;
      }
    </style>
  </defs>
  <path class="cls-2" d="M75.51,58.71c.39,3.81-.34,7.17-4.94,6.58.28,2.22-.4,4.17-2.67,4.88H29.9c-2.26-.7-2.95-2.65-2.67-4.88-4.6.59-5.32-2.78-4.94-6.58-1.28-.19-3.44.59-4.05-.75-1.2-2.65-1.23-9.03-.86-11.97,3.97-31.64,47.35-38.2,60.36-9.41,2.51,5.55,4.14,15.41,1.86,21.16-.67,1.69-2.59.74-4.11.97ZM77.7,56.24c4.43-21.76-15.29-40.74-36.97-34.63-14.83,4.18-23.78,19.61-20.64,34.63h4.39c-4.59-18.72,12.22-35.71,31.06-30.64,13.21,3.55,21.12,17.37,17.77,30.64h4.39ZM47.8,27.16c-3.28-.21-6.29,1.21-9.33,2.2,3.05,4.19.24,6.09-2.06,1.37-2.67,1.75-4.84,4.16-6.72,6.72,4.52,1.58,3.23,5.26-.97,2.09-.87.06-2.92,7.78-2.6,9.02,4.92-.62,5.22,3.26,0,2.47l.85,5.19h43.84l.85-5.19c-5.23.79-4.91-3.09,0-2.47-.16-3.1-.93-6.23-2.46-8.94-.41-.25-3.03,2.18-3.81.94-.89-1.42,1.52-2.77,2.7-2.98-1.75-2.69-4.06-5.05-6.72-6.85-2.29,4.72-5.1,2.81-2.06-1.37-3.02-1.03-6.04-2.4-9.33-2.2-.12.99.46,3.16-.74,3.52-2.19.65-1.29-2.19-1.45-3.52ZM24.75,58.71v4.4h48.31v-4.4H24.75ZM29.69,65.29v2.48h38.43v-2.48H29.69Z"/>
  <path class="cls-2" d="M60.62,36.82c1.52-.33,1.73.57,1.3,1.86l-9.32,9.05c.5,1.79.77,2.94-.41,4.53-3.3,4.46-9.82-.6-6.58-4.94,1.43-1.92,3.38-1.52,5.48-1.36,1.92-1.34,7.85-8.78,9.54-9.15ZM50.67,49.82c0-.98-.79-1.77-1.77-1.77s-1.77.79-1.77,1.77.79,1.77,1.77,1.77,1.77-.79,1.77-1.77Z"/>
  <g>
    <path class="cls-1" d="M37.21,45.9v-6.98h.85l.09.72h.07c.18-.28.41-.49.69-.63.28-.14.59-.21.94-.21.43,0,.8.1,1.11.29.31.19.55.49.71.9.17.41.25.93.25,1.58s-.08,1.14-.25,1.54c-.17.4-.41.7-.71.89-.31.19-.66.29-1.06.29-.23,0-.45-.03-.65-.08-.2-.05-.38-.14-.53-.25-.16-.11-.29-.26-.4-.43h-.06v2.37h-1.04ZM39.53,43.39c.31,0,.57-.06.76-.18.19-.12.33-.31.42-.57s.13-.59.13-.99v-.18c0-.42-.05-.76-.14-1.02-.09-.26-.23-.45-.42-.57-.19-.12-.43-.18-.73-.18s-.56.07-.75.2c-.19.14-.33.34-.42.6s-.13.59-.13.97v.14c0,.31.03.58.09.81.06.23.15.41.26.55.11.14.25.25.41.31.16.07.34.1.53.1Z"/>
    <path class="cls-1" d="M42.88,44.17v-6.85h1.12v2.87h3.48v-2.87h1.12v6.85h-1.12v-3.03h-3.48v3.03h-1.12Z"/>
  </g>
</svg>