<?xml version="1.0" encoding="UTF-8"?>
<svg id="Capa_1" data-name="Capa 1" xmlns="http://www.w3.org/2000/svg" viewBox="0 0 97.88 97.88">
  <defs>
    <style>
      .cls-1 {
        letter-spacing: -.06em;
      }

      .cls-1, .cls-2, .cls-3 {
        font-family: Archivo-Black, Archivo;
        font-size: 12px;
        font-weight: 800;
      }

      .cls-1, .cls-2, .cls-3, .cls-4 {
        fill: #6447dd;
      }

      .cls-2 {
        letter-spacing: -.02em;
      }

      .cls-3 {
        letter-spacing: -.03em;
      }
    </style>
  </defs>
  <g>
    <path class="cls-4" d="M62.89,52.59c0,3.34-2.71,6.05-6.05,6.05s-6.05-2.71-6.05-6.05,2.71-6.05,6.05-6.05,6.05,2.71,6.05,6.05ZM60.62,52.59c0-2.09-1.69-3.78-3.78-3.78s-3.78,1.69-3.78,3.78,1.69,3.78,3.78,3.78,3.78-1.69,3.78-3.78Z"/>
    <path class="cls-4" d="M83.66,49.84c0,3.1-2.51,5.61-5.61,5.61s-5.61-2.51-5.61-5.61,2.51-5.61,5.61-5.61,5.61,2.51,5.61,5.61ZM79.97,46.86c-.15-.1-2.97-.12-3.35-.05-.53.1-2.04,2.56-2.02,3.13,0,.17,1.52,2.97,1.67,3.06.22.13,2.66.13,3.06.05.59-.11,2.22-2.67,2.27-3.16.02-.17-1.48-2.94-1.63-3.03Z"/>
    <path class="cls-4" d="M35.24,51.7h4.61v-3.94c0-1.1,2.17-.74,2.17-.27v10.86c0,.83-2.17.83-2.17,0v-4.48h-4.61v4.48c0,.83-2.17.83-2.17,0v-10.86c0-.57,2.17-.57,2.17,0v4.21Z"/>
    <path class="cls-4" d="M24.7,47.99c0,2.89-2.34,5.24-5.24,5.24s-5.24-2.34-5.24-5.24,2.34-5.24,5.24-5.24,5.24,2.34,5.24,5.24ZM22.42,47.97c0-1.64-1.33-2.97-2.97-2.97s-2.97,1.33-2.97,2.97,1.33,2.97,2.97,2.97,2.97-1.33,2.97-2.97Z"/>
    <path class="cls-4" d="M47.72,63.64c1.14.08,3.22-.52,3.19,1.19-.03,1.36-4.51,1.16-5.48.98-3.57-.68,3.91-6.38,2.6-8.01-1.21-1.51-2.48,2.73-3.7.98-1.6-2.29,4-5.6,5.82-2.02,1.33,2.61-1.22,4.83-2.41,6.88Z"/>
    <path class="cls-4" d="M26.55,57.94c-.39-.94-.72-3.69.69-3.81,1.87-.17,1.05,3.32,1.5,3.79.09.09,1.49.09,2.26.86.43.42,3.83,6.22,4.02,6.84.46,1.52-.34,3.17-.21,3.44.37.76,3.42,2.62,4.31,3.04,4.22,2.01,9.2,2.39,13.7,1.11.74-.21,4.31-1.7,4.68-2.11.5-.56.21-3.6.39-4.77.64-4.05,4.32-8.15,8.25-9.25.35-3.75-.24-7.28-1.91-10.63-3.89-7.8-11.27-17.49-16.19-25.07-.18-.27-.28-.58-.32-.9-.12-.11-.37-.04-.56.17-.34.38-3.14,4.88-3.19,5.18-.09.55.65,2.37.74,3.23.64,6.3-3.3,11.89-9.25,13.75-.81.25-2.55.31-3.06.74-.57.48-1.98,3.32-2.36,4.15-.47,1.04-.84,3.82-2.03,3.92-2.37.21-.32-4.25.13-5.28.22-.49,1.9-3.15,1.67-3.34-4.38.05-10.23-5.39-10.58-9.67-.09-1.15.79-1.93,1.78-1.21.33.25,1.63,3.82,2.45,4.88,6.95,9.07,22.03,1.83,18.42-10-2.68-8.78-15.51-9.67-19.54-1.38-.55,1.13-.81,3.86-2.12,3.75-1.96-.17-.46-3.69.05-4.73,4.3-8.9,17.12-9.49,22.44-1.17,1.03-1.22,1.94-3.54,2.97-4.63,3.28-3.46,6.48,5.54,8.15,7.34l5.32-8.79c.8-.91,4.83-.98,5.76-.66.69.24.89,1.48.27,1.88-1.1.69-3.75-.22-4.57.52l-5.23,9.32,7.81,11.99,10.13.09,6-10.01.15-.91-5.83-10.48c-.84-.75-3.88.16-5.02-.4-.84-.41-.61-2.04-.13-2.04h5.7c.41,0,1.43,1.42,1.71,1.82,1.59,2.3,4.14,6.77,5.35,9.3,1.1,2.31.7,2.41-.36,4.53-1.16,2.31-3.88,7.39-5.35,9.3-.37.47-1.63,1.37-2.16,1.37h-8.55c2.61,4.02,4.06,8.73,3.8,13.57,8.64-1.32,15.65,6.74,13.71,15.21-2.72,11.9-19.49,12.9-23.92,1.6-8.05,4.24-18.05,3.79-24.94-2.42-1.11,1.28-1.69,3.89-3.31,4.55-1.23.5-7.98.55-9.19.08-.42-.16-.63-.39-.94-.69-.56-.54-3.84-5.95-4.12-6.74-.33-.91-.33-1.66,0-2.56.35-.99,2.71-4.85,3.42-5.81.44-.6,1.41-1.86,2.21-1.86h5.02ZM80.37,68.89c0-5.65-4.58-10.24-10.24-10.24s-10.24,4.58-10.24,10.24,4.58,10.24,10.24,10.24,10.24-4.58,10.24-10.24ZM29.49,60.43h-8.06s-3.51,6.56-3.51,6.56l3.74,6.28,7.83.09c.31-1.4,3.6-5.49,3.51-6.56-.11-1.33-3.12-4.79-3.51-6.38Z"/>
  </g>
  <text class="cls-3" transform="translate(23.98 34.15)"><tspan x="0" y="0">Na</tspan></text>
  <text class="cls-3" transform="translate(58.48 33.02)"><tspan x="0" y="0">Mg</tspan></text>
  <text class="cls-2" transform="translate(62.17 72.76)"><tspan x="0" y="0">Ca</tspan></text>
  <text class="cls-1" transform="translate(20.87 71.08)"><tspan x="0" y="0">K</tspan></text>
</svg>