<?xml version="1.0" encoding="UTF-8"?>
<svg id="Capa_1" data-name="Capa 1" xmlns="http://www.w3.org/2000/svg" viewBox="0 0 97.88 97.88">
  <defs>
    <style>
      .cls-1 {
        fill: #6447dd;
      }
    </style>
  </defs>
  <path class="cls-1" d="M85.71,42.94h-11.87v-2h12.12c.39,0,.69-1.48-.02-1.98-.79-.56-2.63-.14-3.6-.27v-7.87c0-11.27-17.26-15.44-22.29-4.3-.53,1.18-2.13,6.85.37,6.14,1.04-.3,1.05-3.34,1.48-4.53,2.57-7.05,12.56-8.08,16.54-1.66.29.47,1.39,2.75,1.39,3.1v9.12h-1.75v-8.12c0-.6-.91-2.64-1.29-3.21-2.96-4.36-9.48-4.39-12.41,0-.73,1.1-2.27,5.14-.15,5.34,1.42.14,1.2-1.92,1.48-2.76,1.1-3.33,5.17-4.61,8-2.49.98.74,2.13,2.67,2.13,3.87v7.37h-2c.22-1.71-.02-4.12-2.12-2.5l-.12,11.37c1.88,2.34,2.59-.48,2.25-2.38.37.06,1.91-.09,2,0,.09.09-.1,1.72.19,2.44.34.85,1.68,1.25,1.81,1.94.11.56.09,6.09-.04,6.46-.25.74-2.31.69-2.97.66.07-1.76.18-3.13-1.24-4.38-.19-.17-1.28-.87-1.38-.87h-5.62l2.02-12.37c.14-1.07-.82-1.74-1.78-1.25-1.01.52-.72,4.98-1.41,5.14h-7.83c-.14-1.13-.11-5.19-1.62-5.25-.27-.01-.87.26-1.01.49-.73,1.21,1.83,11.15,1.63,13.25h-19.49c-.11-1.23.43-3.02-.75-3.87-.38-.27-1.18-.36-1.22-.41-.06-.07-.09-1.89-.02-1.96.05-.05.87-.05,1.33-.29.59-.31,1.47-1.7,1.58-1.72.56-.14,1.45.1,2.07,0,.08.94-.44,2.82.89,3.01.89.12,1.26-.29,1.37-1.12.1-.79.08-6.45-.14-6.88-.35-.73-1.66-.58-2,0-.35.6,0,2.02-.12,2.75-.53-.11-1.87.18-2.21-.04-.07-.05-.36-1.03-.91-1.46-.47-.37-1.79-.69-1.85-.78-.26-.41.11-8.25-.1-9.77-.73-5.34-6.82-5.37-11.05-4.94-1.25.13-2.46,1.03-1.38,2.13.9.91,6.58-.04,8.27.48.86.27,1.99,1.93,1.99,2.76v9.37h-2v-8.87c0-.62-1.3-1.45-1.93-1.57-.91-.16-5.32-.2-6,.12-.96.45-.57,2.06-.18,2.06h5.87v8.25c0,.11-1.73-.07-2.12,0-1.04.19-1.54,1.58-.63,2.12.79.47,6.99-.09,8.6.15,1.8.26,1.87,1.71.52,1.97-1.57.3-8.77-.51-9.38.43-1.22,1.86,1.77,2.08,3.02,1.83.22,2.48,0,1.55-1.24,2.38-1.54,1.03-.82,3.69-1.01,3.87-.05.05-.96-.02-1.32.06-.91.2-2.11,1.17-2.45,2.05-.38.97-.39,6.75-.24,8.02.27,2.25,2.94,2.46,3.02,2.78.24,4.03-.36,8.49-.02,12.46.71,8.22,12.09,7.95,12.76.5.37-4.12-.28-8.79-.03-12.98,1.59-.87,2.45-1.04,4.03.01.54,4.22-1.26,12.52,1.24,15.95,3.13,4.31,10.15,3.12,11.43-2.06,1-4.05-.09-9.66.3-13.89,1.52-1.01,2.25-1.01,3.77,0,.2,3.81-.3,7.94-.02,11.72.69,9.27,12.06,8.81,12.98.96.22-1.88-.29-12.27.06-12.81.06-.09,1.2-.36,1.55-.57,1.68-1.01,1.45-3.02,1.41-4.71,1.34,0,2.82.18,3.99-.63,2.45-1.71.62-6.58,1.26-8.93.03-.11,1.37-1,1.72-1.59.51-.88.44-2.49.54-2.59.11-.11,2.56.1,3.12,0,1.47-.28.8-2.24.26-2.24ZM65.34,45.19l-.99,6.09c-.14.26-5.15.3-5.4-.07-.38-.57-.52-4.99-.86-6.01h7.25ZM30.32,45.19h3.12v1.69h-3.12v-1.69ZM28.86,49.44h6v2h-6v-2ZM35.86,77.55c0,.1-.51,1.17-.64,1.36-1.63,2.51-5.8,2.29-7.05-.42-.09-.21-.56-1.6-.56-1.69v-12.62h8.25v13.37ZM37.24,61.95c-3.69.34-7.95-.23-11.7-.07-1.45-.29-.82-1.84-.93-2.94h14.49c.08,1.88.26,2.82-1.86,3.01ZM52.6,77.55c0,.1-.51,1.17-.64,1.36-1.52,2.35-4.96,2.34-6.61.14-.14-.19-.75-1.18-.75-1.25v-13.62h8v13.37ZM56.47,56.69c-1.22,0-.08,4.47-1.06,5-.19.1-.71.19-.96.22-2.24.26-9.82.35-11.91-.03-1.83-.33-1.05-1.48-1.19-2.94h9.62c1.07,0,1.04-2.25.25-2.25h-26.61c-.03-1.32-.31-2.79,1.36-3.01l45.86.14c1.08.64.72,1.79.76,2.87h-16.12ZM69.34,77.8c0,.07-.61,1.06-.75,1.25-1.65,2.2-4.85,2.19-6.5,0-.14-.19-.75-1.18-.75-1.25v-13.62h8v13.62ZM71.6,61.82c-1.93.46-9.1.27-11.39.12-2.47-.16-2.13-.63-2.11-3.01h14.49c-.15,1.3.61,2.5-.98,2.89ZM80.75,46.07c0,.89-.72,1.61-1.61,1.61s-1.61-.72-1.61-1.61v-.81h3.22v.81Z"/>
</svg>